<mxfile modified="2020-10-13T13:25:54.898Z" host="app.diagrams.net" agent="5.0 (Windows NT 10.0; Win64; x64) AppleWebKit/537.36 (KHTML, like Gecko) Chrome/85.0.4183.121 Safari/537.36" etag="-rbqc_5NLnEC0nRwWKK0" version="13.7.9" type="github">
  <diagram id="Ht1M8jgEwFfnCIfOTk4-" name="Page-1">
    <mxGraphModel dx="1422" dy="800" grid="1" gridSize="10" guides="1" tooltips="1" connect="1" arrows="1" fold="1" page="1" pageScale="1" pageWidth="1169" pageHeight="827" math="0" shadow="0">
      <root>
        <mxCell id="0" />
        <mxCell id="1" parent="0" />
        <mxCell id="i94PFO0_uQYRM_HVaGMa-1" value="Resource owner" style="rounded=0;whiteSpace=wrap;html=1;" vertex="1" parent="1">
          <mxGeometry x="100" y="191" width="120" height="60" as="geometry" />
        </mxCell>
        <mxCell id="i94PFO0_uQYRM_HVaGMa-3" value="Client" style="rounded=0;whiteSpace=wrap;html=1;" vertex="1" parent="1">
          <mxGeometry x="100" y="440" width="120" height="60" as="geometry" />
        </mxCell>
        <mxCell id="i94PFO0_uQYRM_HVaGMa-5" value="3" style="endArrow=classic;html=1;" edge="1" parent="1">
          <mxGeometry width="50" height="50" relative="1" as="geometry">
            <mxPoint x="190" y="440" as="sourcePoint" />
            <mxPoint x="190" y="400" as="targetPoint" />
          </mxGeometry>
        </mxCell>
        <mxCell id="i94PFO0_uQYRM_HVaGMa-6" value="1" style="endArrow=classic;html=1;entryX=0.25;entryY=0;entryDx=0;entryDy=0;exitX=0.25;exitY=1;exitDx=0;exitDy=0;" edge="1" parent="1" source="i94PFO0_uQYRM_HVaGMa-11" target="i94PFO0_uQYRM_HVaGMa-3">
          <mxGeometry width="50" height="50" relative="1" as="geometry">
            <mxPoint x="130" y="380" as="sourcePoint" />
            <mxPoint x="100" y="420" as="targetPoint" />
          </mxGeometry>
        </mxCell>
        <mxCell id="i94PFO0_uQYRM_HVaGMa-7" value="" style="endArrow=classic;html=1;" edge="1" parent="1">
          <mxGeometry width="50" height="50" relative="1" as="geometry">
            <mxPoint x="159.5" y="315" as="sourcePoint" />
            <mxPoint x="159.5" y="250" as="targetPoint" />
          </mxGeometry>
        </mxCell>
        <mxCell id="i94PFO0_uQYRM_HVaGMa-8" value="Authorization&lt;br&gt;server" style="rounded=0;whiteSpace=wrap;html=1;" vertex="1" parent="1">
          <mxGeometry x="479" y="298" width="120" height="103" as="geometry" />
        </mxCell>
        <mxCell id="i94PFO0_uQYRM_HVaGMa-9" value="1 Client identifier &amp;amp; redirect URI" style="endArrow=classic;html=1;exitX=1;exitY=0.25;exitDx=0;exitDy=0;entryX=0;entryY=0.33;entryDx=0;entryDy=0;entryPerimeter=0;" edge="1" parent="1" target="i94PFO0_uQYRM_HVaGMa-8">
          <mxGeometry width="50" height="50" relative="1" as="geometry">
            <mxPoint x="220" y="332" as="sourcePoint" />
            <mxPoint x="479" y="340" as="targetPoint" />
            <Array as="points" />
          </mxGeometry>
        </mxCell>
        <mxCell id="i94PFO0_uQYRM_HVaGMa-10" value="" style="endArrow=classic;html=1;exitX=1;exitY=0.25;exitDx=0;exitDy=0;entryX=0;entryY=0.33;entryDx=0;entryDy=0;entryPerimeter=0;" edge="1" parent="1">
          <mxGeometry width="50" height="50" relative="1" as="geometry">
            <mxPoint x="221" y="352" as="sourcePoint" />
            <mxPoint x="480" y="351.99" as="targetPoint" />
            <Array as="points" />
          </mxGeometry>
        </mxCell>
        <mxCell id="i94PFO0_uQYRM_HVaGMa-16" value="2 User Authenticates" style="edgeLabel;html=1;align=center;verticalAlign=middle;resizable=0;points=[];" vertex="1" connectable="0" parent="i94PFO0_uQYRM_HVaGMa-10">
          <mxGeometry x="-0.1351" y="1" relative="1" as="geometry">
            <mxPoint as="offset" />
          </mxGeometry>
        </mxCell>
        <mxCell id="i94PFO0_uQYRM_HVaGMa-22" value="2" style="edgeStyle=orthogonalEdgeStyle;rounded=0;orthogonalLoop=1;jettySize=auto;html=1;" edge="1" parent="1" source="i94PFO0_uQYRM_HVaGMa-11" target="i94PFO0_uQYRM_HVaGMa-1">
          <mxGeometry relative="1" as="geometry" />
        </mxCell>
        <mxCell id="i94PFO0_uQYRM_HVaGMa-11" value="User agent" style="rounded=0;whiteSpace=wrap;html=1;" vertex="1" parent="1">
          <mxGeometry x="100" y="298" width="120" height="103" as="geometry" />
        </mxCell>
        <mxCell id="i94PFO0_uQYRM_HVaGMa-15" value="3 Authorization code" style="endArrow=classic;html=1;entryX=1;entryY=0.75;entryDx=0;entryDy=0;exitX=0;exitY=0.75;exitDx=0;exitDy=0;" edge="1" parent="1" source="i94PFO0_uQYRM_HVaGMa-8" target="i94PFO0_uQYRM_HVaGMa-11">
          <mxGeometry width="50" height="50" relative="1" as="geometry">
            <mxPoint x="460" y="460" as="sourcePoint" />
            <mxPoint x="750" y="490" as="targetPoint" />
          </mxGeometry>
        </mxCell>
        <mxCell id="i94PFO0_uQYRM_HVaGMa-17" value="4 Redirect URI" style="endArrow=classic;html=1;entryX=0.5;entryY=1;entryDx=0;entryDy=0;" edge="1" parent="1" target="i94PFO0_uQYRM_HVaGMa-8">
          <mxGeometry width="50" height="50" relative="1" as="geometry">
            <mxPoint x="220" y="461" as="sourcePoint" />
            <mxPoint x="509" y="412" as="targetPoint" />
            <Array as="points">
              <mxPoint x="539" y="461" />
            </Array>
          </mxGeometry>
        </mxCell>
        <mxCell id="i94PFO0_uQYRM_HVaGMa-19" value="5 Access Token" style="endArrow=classic;html=1;entryX=1;entryY=0.75;entryDx=0;entryDy=0;" edge="1" parent="1" target="i94PFO0_uQYRM_HVaGMa-3">
          <mxGeometry width="50" height="50" relative="1" as="geometry">
            <mxPoint x="560" y="401" as="sourcePoint" />
            <mxPoint x="550" y="490" as="targetPoint" />
            <Array as="points">
              <mxPoint x="560" y="485" />
            </Array>
          </mxGeometry>
        </mxCell>
        <mxCell id="i94PFO0_uQYRM_HVaGMa-30" value="1.&amp;nbsp;The OAuth client initiates the flow when it directs the user agent of the resource owner to &lt;br&gt;the authorization endpoint.&amp;nbsp;The OAuth client includes its client identifier, requested scope, &lt;br&gt;local state, and a redirection URI. The authorization server sends the user agent back&amp;nbsp;to the &lt;br&gt;redirection URI after access is granted or denied.&lt;br&gt;&lt;br&gt;2.The authorization server authenticates the resource owner through the user agent and&lt;br&gt;establishes whether the resource owner grants or denies the access request.&lt;br&gt;&lt;br&gt;3. If the resource owner grants access, the OAuth client uses the redirection URI provided&lt;br&gt;earlier to redirect the user agent back to the OAuth client. The redirection URI includes an&lt;br&gt;authorization code and any local state previously provided by the OAuth client.&lt;br&gt;&lt;br&gt;4. The OAuth client requests an access token from the authorization server through the&lt;br&gt;token endpoint. The OAuth client authenticates with its client credentials and includes the&lt;br&gt;authorization code received in the previous step. The OAuth client also includes the&lt;br&gt;redirection URI used to obtain the authorization code for verification.&lt;br&gt;&lt;br&gt;5. The authorization server validates the client credentials and the authorization code. The&lt;br/&gt;server also ensures that the redirection URI received matches the URI used to redirect the&lt;br/&gt;client in Step 3. If valid, the authorization server responds back with an access token." style="text;html=1;align=center;verticalAlign=middle;resizable=0;points=[];autosize=1;" vertex="1" parent="1">
          <mxGeometry x="620" y="204.5" width="500" height="290" as="geometry" />
        </mxCell>
      </root>
    </mxGraphModel>
  </diagram>
</mxfile>
